<svg xmlns="http://www.w3.org/2000/svg" viewBox="0 0 554.18 168.59"><defs><style>.cls-1{fill:#4b1979;}.cls-2,.cls-3{fill:none;stroke:#000;stroke-miterlimit:10;}.cls-2{stroke-width:4px;}.cls-4{fill:#7126b5;}</style></defs><g id="Layer_2" data-name="Layer 2"><g id="Layer_1-2" data-name="Layer 1"><path class="cls-1" d="M28.71,32.06C26.9,31,19.28,39.3,0,67.2c2.66,2.32,5.69,5,9,8.15,6.31,5.92,8.92,8.84,11.57,8.14,1.74-.46,1.61-2.38,3.43-3.86,3.28-2.65,8.92-1.08,13.16.66a109.68,109.68,0,0,0,29.27,60.2,88.3,88.3,0,0,0,16.71-4.29c28.58-10.4,44.56-33.06,51.43-44.57C122.76,102,112,103.06,108,103.19c-20.89.68-39.37-17.46-46.27-34.27C57.25,58,57.24,46.75,54,46.63c-3.45-.12-3.62,12.67-13.12,17.51-4.65,2.38-11.72,3-15.17-.37C18.15,56.45,31.52,33.68,28.71,32.06Z"/><path class="cls-2" d="M38.57,17.92A223.63,223.63,0,0,0,16.29,70.63,44.59,44.59,0,0,0,24,75.77a46.2,46.2,0,0,0,18,5.15l9.86-24a101.15,101.15,0,0,0,51.43,65.14A107.72,107.72,0,0,0,116,113.15c7.21-5.85,18.14-14.73,25-29.66a67.91,67.91,0,0,0,6-28.29,43.35,43.35,0,0,1-30-3,42.48,42.48,0,0,1-16.75-15.34L120,35.06a45.48,45.48,0,0,0,.43-26.14l-48-6.43c4.95,9.71,1.82,21-5.57,25.71C58.12,33.8,43.88,30,38.57,17.92Z"/><path class="cls-1" d="M97.29,35.44a16.35,16.35,0,0,1,7.9-6.08c3.3-1.09,5.5-.34,9.08-1.92A18.07,18.07,0,0,0,120,23.35a20.3,20.3,0,0,1,.11,4.37,20,20,0,0,1-1.5,6Z"/><path d="M224,112.3a10.11,10.11,0,0,1-3.87-3.81,11.27,11.27,0,0,1,0-11A10.16,10.16,0,0,1,224,93.7a11.28,11.28,0,0,1,10.74,0,10,10,0,0,1,3.85,3.8,11.41,11.41,0,0,1,0,11,10,10,0,0,1-3.85,3.81,11.21,11.21,0,0,1-10.74,0Zm9-2.55a6.56,6.56,0,0,0,2.54-2.7,9.49,9.49,0,0,0,0-8.11A6.48,6.48,0,0,0,233,96.27a7.79,7.79,0,0,0-7.38,0,6.46,6.46,0,0,0-2.53,2.67,9.4,9.4,0,0,0,0,8.11,6.54,6.54,0,0,0,2.53,2.7,7.64,7.64,0,0,0,7.38,0Z"/><path d="M255.34,97.47a5.75,5.75,0,0,1,2.41,2.4,7.89,7.89,0,0,1,.87,3.84v9.75h-3.39v-9.24a4.81,4.81,0,0,0-1.11-3.41,4.49,4.49,0,0,0-6.07,0,4.77,4.77,0,0,0-1.13,3.41v9.24H243.5V96.93h3.42v1.89a5.68,5.68,0,0,1,2.15-1.59,6.83,6.83,0,0,1,2.77-.57A7.43,7.43,0,0,1,255.34,97.47Z"/><path d="M266.54,91.26v22.2h-3.42V91.26Z"/><path d="M271.37,94.11a2.19,2.19,0,0,1,1.56-3.75,2.08,2.08,0,0,1,1.53.63,2.25,2.25,0,0,1,0,3.12,2.08,2.08,0,0,1-1.53.63A2.12,2.12,0,0,1,271.37,94.11Zm3.24,2.82v16.53h-3.42V96.93Z"/><path d="M291.1,97.47a5.75,5.75,0,0,1,2.41,2.4,7.89,7.89,0,0,1,.87,3.84v9.75H291v-9.24a4.81,4.81,0,0,0-1.11-3.41,4.49,4.49,0,0,0-6.07,0,4.77,4.77,0,0,0-1.13,3.41v9.24h-3.42V96.93h3.42v1.89a5.68,5.68,0,0,1,2.15-1.59,6.83,6.83,0,0,1,2.77-.57A7.43,7.43,0,0,1,291.1,97.47Z"/><path d="M313.91,106.47H301.28a4.59,4.59,0,0,0,1.47,3.18,4.64,4.64,0,0,0,3.24,1.2,4,4,0,0,0,3.9-2.31h3.69a7.42,7.42,0,0,1-2.71,3.73,8,8,0,0,1-4.88,1.46,8.43,8.43,0,0,1-4.24-1.07,7.58,7.58,0,0,1-2.94-3,9.13,9.13,0,0,1-1.07-4.48,9.39,9.39,0,0,1,1-4.49,7.27,7.27,0,0,1,2.91-3,8.64,8.64,0,0,1,4.3-1,8.42,8.42,0,0,1,4.17,1,7.19,7.19,0,0,1,2.85,2.86,8.65,8.65,0,0,1,1,4.25A10.69,10.69,0,0,1,313.91,106.47Zm-3.45-2.76a3.89,3.89,0,0,0-1.35-3,4.83,4.83,0,0,0-3.27-1.14,4.39,4.39,0,0,0-3,1.12,4.71,4.71,0,0,0-1.5,3Z"/><path d="M339,92.61V95.4h-5.55v18.06H330V95.4h-5.58V92.61Z"/><path d="M354.49,97.47a5.77,5.77,0,0,1,2.34,2.4,8,8,0,0,1,.85,3.84v9.75h-3.39v-9.24a4.81,4.81,0,0,0-1.11-3.41,4.49,4.49,0,0,0-6.07,0,4.77,4.77,0,0,0-1.13,3.41v9.24h-3.42V91.26H346v7.59a5.68,5.68,0,0,1,2.21-1.62,7.35,7.35,0,0,1,2.92-.57A7,7,0,0,1,354.49,97.47Z"/><path d="M367.59,97.36a5.92,5.92,0,0,1,3-.7v3.54h-.87a4.18,4.18,0,0,0-3.05,1,4.88,4.88,0,0,0-1,3.54v8.7h-3.42V96.93h3.42v2.4A5.37,5.37,0,0,1,367.59,97.36Z"/><path d="M374,94.11a2.19,2.19,0,0,1,1.56-3.75,2.08,2.08,0,0,1,1.53.63,2.25,2.25,0,0,1,0,3.12,2.08,2.08,0,0,1-1.53.63A2.12,2.12,0,0,1,374,94.11Zm3.24,2.82v16.53h-3.42V96.93Z"/><path d="M388.85,99.72h-3.06v13.74h-3.45V99.72h-1.95V96.93h1.95V95.76a5.21,5.21,0,0,1,1.51-4.16,7.2,7.2,0,0,1,4.76-1.3v2.85a3.21,3.21,0,0,0-2.19.58,2.7,2.7,0,0,0-.63,2v1.17h3.06Z"/><path d="M396,99.72v9.15a1.74,1.74,0,0,0,.43,1.33,2.18,2.18,0,0,0,1.49.41H400v2.85h-2.7a5.2,5.2,0,0,1-3.54-1.08,4.45,4.45,0,0,1-1.23-3.51V99.72h-1.95V96.93h1.95V92.82H396v4.11h4v2.79Z"/><path d="M403.52,94.11a2.19,2.19,0,0,1,1.56-3.75,2.08,2.08,0,0,1,1.53.63,2.25,2.25,0,0,1,0,3.12,2.08,2.08,0,0,1-1.53.63A2.12,2.12,0,0,1,403.52,94.11Zm3.24,2.82v16.53h-3.42V96.93Z"/><path d="M423.24,97.47a5.77,5.77,0,0,1,2.42,2.4,7.89,7.89,0,0,1,.87,3.84v9.75h-3.39v-9.24a4.81,4.81,0,0,0-1.11-3.41,4,4,0,0,0-3-1.18,4,4,0,0,0-3.05,1.18,4.77,4.77,0,0,0-1.12,3.41v9.24h-3.42V96.93h3.42v1.89A5.64,5.64,0,0,1,417,97.23a6.88,6.88,0,0,1,2.78-.57A7.39,7.39,0,0,1,423.24,97.47Z"/><path d="M441.09,97.42a6.57,6.57,0,0,1,2.33,1.91v-2.4h3.45v16.8a8.43,8.43,0,0,1-1,4.06,7,7,0,0,1-2.78,2.81,8.69,8.69,0,0,1-4.33,1,9.41,9.41,0,0,1-5.58-1.58,5.8,5.8,0,0,1-2.52-4.27h3.39a3.66,3.66,0,0,0,1.66,2.08,5.66,5.66,0,0,0,3.05.8,4.54,4.54,0,0,0,3.34-1.26,4.92,4.92,0,0,0,1.28-3.66V111a7.16,7.16,0,0,1-5.73,2.76,7.42,7.42,0,0,1-3.95-1.1,7.73,7.73,0,0,1-2.82-3.06,9.39,9.39,0,0,1-1-4.45,9.15,9.15,0,0,1,1-4.41,7.52,7.52,0,0,1,6.77-4A7.31,7.31,0,0,1,441.09,97.42Zm1.62,4.79a4.94,4.94,0,0,0-1.84-1.92,4.83,4.83,0,0,0-2.46-.66,4.85,4.85,0,0,0-4.31,2.53,5.92,5.92,0,0,0-.7,3,6.16,6.16,0,0,0,.7,3,5,5,0,0,0,1.86,2,4.83,4.83,0,0,0,4.91,0,4.93,4.93,0,0,0,1.84-1.94,6.05,6.05,0,0,0,.71-3A6,6,0,0,0,442.71,102.21Z"/><path class="cls-3" d="M7.7,149.75c9.73,6.15,34.23,19.76,67.08,18.22,5.93-.27,61.23-3.8,89.29-51,17.74-29.87,14.49-60.21,12.86-70.72"/><path class="cls-4" d="M239.08,40.22v6.85h-9.3V75.32h-8.55V47.07h-9.3V40.22Z"/><path class="cls-4" d="M277.53,40.22v35.1H269V60.87h-13.3V75.32h-8.55V40.22h8.55V54H269V40.22Z"/><path class="cls-4" d="M305.33,75.32,298,62.07h-2V75.32h-8.55V40.22h14.35a15.9,15.9,0,0,1,7.08,1.45,9.93,9.93,0,0,1,4.37,4,11,11,0,0,1,1.45,5.62,10.42,10.42,0,0,1-2,6.25,10.63,10.63,0,0,1-5.83,3.9l8.1,13.9ZM296,56h5.3a4.84,4.84,0,0,0,3.53-1.15A4.36,4.36,0,0,0,306,51.62a4.23,4.23,0,0,0-1.17-3.15,4.88,4.88,0,0,0-3.53-1.15H296Z"/><path class="cls-4" d="M332.33,40.22v35.1h-8.55V40.22Z"/><path class="cls-4" d="M365.13,40.22v6.85h-14.3v7.4h10.7v6.65h-10.7v14.2h-8.55V40.22Z"/><path class="cls-4" d="M398.63,40.22v6.85h-9.3V75.32h-8.55V47.07h-9.3V40.22Z"/><path class="cls-4" d="M414.21,73.37A17.11,17.11,0,0,1,407.66,67a18.88,18.88,0,0,1,0-18.53,17.27,17.27,0,0,1,6.55-6.4,19.05,19.05,0,0,1,18.15,0,17,17,0,0,1,6.5,6.4,19.19,19.19,0,0,1,0,18.53,17,17,0,0,1-6.5,6.42,19,19,0,0,1-18.12,0Zm15.8-8.3a10.63,10.63,0,0,0,2.52-7.4A10.61,10.61,0,0,0,430,50.25a9.62,9.62,0,0,0-13.5,0A10.58,10.58,0,0,0,414,57.67a10.59,10.59,0,0,0,2.53,7.43,9.57,9.57,0,0,0,13.5,0Z"/><path class="cls-4" d="M467.63,75.32l-7.3-13.25h-2.05V75.32h-8.55V40.22h14.35a15.9,15.9,0,0,1,7.08,1.45,9.93,9.93,0,0,1,4.37,4A11,11,0,0,1,477,51.27a10.49,10.49,0,0,1-2,6.25,10.63,10.63,0,0,1-5.83,3.9l8.1,13.9ZM458.28,56h5.3a4.86,4.86,0,0,0,3.53-1.15,4.36,4.36,0,0,0,1.17-3.25,4.23,4.23,0,0,0-1.17-3.15,4.9,4.9,0,0,0-3.53-1.15h-5.3Z"/><path class="cls-4" d="M495.18,68.32h15.1v7h-24.8v-6.5l15-21.6h-15v-7h24.8v6.5Z"/><path class="cls-4" d="M527.16,73.37A17.11,17.11,0,0,1,520.61,67a18.88,18.88,0,0,1,0-18.53,17.27,17.27,0,0,1,6.55-6.4,19.05,19.05,0,0,1,18.15,0,17,17,0,0,1,6.5,6.4,19.19,19.19,0,0,1,0,18.53,17.05,17.05,0,0,1-6.5,6.42,19,19,0,0,1-18.12,0Zm15.8-8.3a10.63,10.63,0,0,0,2.52-7.4A10.61,10.61,0,0,0,543,50.25a9.62,9.62,0,0,0-13.5,0,10.58,10.58,0,0,0-2.53,7.45,10.59,10.59,0,0,0,2.53,7.43,9.57,9.57,0,0,0,13.5,0Z"/></g></g></svg>