<svg xmlns="http://www.w3.org/2000/svg" viewBox="0 0 554.18 166.73"><defs><style>.cls-1{fill:#fff;}.cls-2{fill:none;stroke:#fff;stroke-miterlimit:10;}</style></defs><g id="Layer_2" data-name="Layer 2"><g id="Layer_1-2" data-name="Layer 1"><path class="cls-1" d="M28.71,30.19c-1.81-1-9.43,7.25-28.71,35.15,2.66,2.31,5.69,5,9,8.14,6.31,5.92,8.92,8.84,11.57,8.14,1.74-.46,1.61-2.38,3.43-3.85,3.28-2.66,8.92-1.08,13.16.66a109.7,109.7,0,0,0,29.27,60.19,88.24,88.24,0,0,0,16.71-4.28c28.58-10.4,44.56-33.06,51.43-44.57C122.76,100.16,112,101.2,108,101.33,87.09,102,68.61,83.87,61.71,67.05,57.25,56.17,57.24,44.88,54,44.77c-3.45-.13-3.62,12.66-13.12,17.51-4.65,2.37-11.72,3-15.17-.37C18.15,54.59,31.52,31.81,28.71,30.19Z"/><path class="cls-2" d="M38.57,16.05A224,224,0,0,0,16.29,68.77,45.77,45.77,0,0,0,24,73.91a46.15,46.15,0,0,0,18,5.14l9.86-24a101.09,101.09,0,0,0,51.43,65.14A107.72,107.72,0,0,0,116,111.28c7.21-5.85,18.14-14.72,25-29.66a67.81,67.81,0,0,0,6-28.28,43.41,43.41,0,0,1-30-3A42.48,42.48,0,0,1,100.25,35L120,33.19a45.48,45.48,0,0,0,.43-26.14L72.43.62c4.95,9.71,1.82,21-5.57,25.72C58.12,31.94,43.88,28.14,38.57,16.05Z"/><path class="cls-1" d="M97.29,33.57a16.32,16.32,0,0,1,7.9-6.07c3.3-1.1,5.5-.35,9.08-1.92a18.24,18.24,0,0,0,5.73-4.1,20.3,20.3,0,0,1,.11,4.37,19.9,19.9,0,0,1-1.5,6Z"/><path class="cls-1" d="M224,110.43a10.09,10.09,0,0,1-3.87-3.8,11.29,11.29,0,0,1,0-11A10.13,10.13,0,0,1,224,91.84a11.21,11.21,0,0,1,10.74,0,10,10,0,0,1,3.85,3.79,11.43,11.43,0,0,1,0,11,10,10,0,0,1-3.85,3.8,11.21,11.21,0,0,1-10.74,0Zm9-2.55a6.56,6.56,0,0,0,2.54-2.7,9.49,9.49,0,0,0,0-8.11A6.48,6.48,0,0,0,233,94.4a7.79,7.79,0,0,0-7.38,0,6.46,6.46,0,0,0-2.53,2.67,9.4,9.4,0,0,0,0,8.11,6.54,6.54,0,0,0,2.53,2.7,7.64,7.64,0,0,0,7.38,0Z"/><path class="cls-1" d="M255.34,95.6a5.75,5.75,0,0,1,2.41,2.4,7.89,7.89,0,0,1,.87,3.84v9.75h-3.39v-9.24a4.78,4.78,0,0,0-1.11-3.4,4.47,4.47,0,0,0-6.07,0,4.75,4.75,0,0,0-1.13,3.4v9.24H243.5V95.06h3.42V97a5.68,5.68,0,0,1,2.15-1.59,6.83,6.83,0,0,1,2.77-.57A7.43,7.43,0,0,1,255.34,95.6Z"/><path class="cls-1" d="M266.54,89.39v22.2h-3.42V89.39Z"/><path class="cls-1" d="M271.37,92.24a2.19,2.19,0,0,1,1.56-3.75,2.08,2.08,0,0,1,1.53.63,2.25,2.25,0,0,1,0,3.12,2.08,2.08,0,0,1-1.53.63A2.12,2.12,0,0,1,271.37,92.24Zm3.24,2.82v16.53h-3.42V95.06Z"/><path class="cls-1" d="M291.1,95.6a5.75,5.75,0,0,1,2.41,2.4,7.89,7.89,0,0,1,.87,3.84v9.75H291v-9.24a4.78,4.78,0,0,0-1.11-3.4,4.47,4.47,0,0,0-6.07,0,4.75,4.75,0,0,0-1.13,3.4v9.24h-3.42V95.06h3.42V97a5.68,5.68,0,0,1,2.15-1.59,6.83,6.83,0,0,1,2.77-.57A7.43,7.43,0,0,1,291.1,95.6Z"/><path class="cls-1" d="M313.91,104.6H301.28a4.59,4.59,0,0,0,1.47,3.18A4.64,4.64,0,0,0,306,109a4,4,0,0,0,3.9-2.31h3.69a7.49,7.49,0,0,1-2.71,3.74,8,8,0,0,1-4.88,1.45,8.43,8.43,0,0,1-4.24-1.07,7.45,7.45,0,0,1-2.94-3,9.13,9.13,0,0,1-1.07-4.48,9.35,9.35,0,0,1,1-4.48,7.29,7.29,0,0,1,2.91-3,8.64,8.64,0,0,1,4.3-1,8.42,8.42,0,0,1,4.17,1A7.26,7.26,0,0,1,313,98.67a8.68,8.68,0,0,1,1,4.25A10.69,10.69,0,0,1,313.91,104.6Zm-3.45-2.76a3.89,3.89,0,0,0-1.35-3,4.83,4.83,0,0,0-3.27-1.14,4.39,4.39,0,0,0-3,1.12,4.71,4.71,0,0,0-1.5,3Z"/><path class="cls-1" d="M339,90.74v2.79h-5.55v18.06H330V93.53h-5.58V90.74Z"/><path class="cls-1" d="M354.49,95.6a5.77,5.77,0,0,1,2.34,2.4,8,8,0,0,1,.85,3.84v9.75h-3.39v-9.24a4.78,4.78,0,0,0-1.11-3.4,4.47,4.47,0,0,0-6.07,0,4.75,4.75,0,0,0-1.13,3.4v9.24h-3.42V89.39H346V97a5.68,5.68,0,0,1,2.21-1.62,7.35,7.35,0,0,1,2.92-.57A7,7,0,0,1,354.49,95.6Z"/><path class="cls-1" d="M367.59,95.5a5.92,5.92,0,0,1,3-.71v3.54h-.87a4.18,4.18,0,0,0-3.05,1,4.88,4.88,0,0,0-1,3.54v8.7h-3.42V95.06h3.42v2.4A5.27,5.27,0,0,1,367.59,95.5Z"/><path class="cls-1" d="M374,92.24a2.19,2.19,0,0,1,1.56-3.75,2.08,2.08,0,0,1,1.53.63,2.25,2.25,0,0,1,0,3.12,2.08,2.08,0,0,1-1.53.63A2.12,2.12,0,0,1,374,92.24Zm3.24,2.82v16.53h-3.42V95.06Z"/><path class="cls-1" d="M388.85,97.85h-3.06v13.74h-3.45V97.85h-1.95V95.06h1.95V93.89a5.21,5.21,0,0,1,1.51-4.16,7.26,7.26,0,0,1,4.76-1.3v2.85a3.16,3.16,0,0,0-2.19.59,2.65,2.65,0,0,0-.63,2v1.17h3.06Z"/><path class="cls-1" d="M396,97.85V107a1.78,1.78,0,0,0,.43,1.34,2.23,2.23,0,0,0,1.49.4H400v2.85h-2.7a5.2,5.2,0,0,1-3.54-1.08,4.45,4.45,0,0,1-1.23-3.51V97.85h-1.95V95.06h1.95V91H396v4.11h4v2.79Z"/><path class="cls-1" d="M403.52,92.24a2.19,2.19,0,0,1,1.56-3.75,2.08,2.08,0,0,1,1.53.63,2.25,2.25,0,0,1,0,3.12,2.08,2.08,0,0,1-1.53.63A2.12,2.12,0,0,1,403.52,92.24Zm3.24,2.82v16.53h-3.42V95.06Z"/><path class="cls-1" d="M423.24,95.6a5.77,5.77,0,0,1,2.42,2.4,7.89,7.89,0,0,1,.87,3.84v9.75h-3.39v-9.24A4.78,4.78,0,0,0,422,99a4,4,0,0,0-3-1.19A4,4,0,0,0,416,99a4.74,4.74,0,0,0-1.12,3.4v9.24h-3.42V95.06h3.42V97A5.64,5.64,0,0,1,417,95.36a6.88,6.88,0,0,1,2.78-.57A7.39,7.39,0,0,1,423.24,95.6Z"/><path class="cls-1" d="M441.09,95.55a6.57,6.57,0,0,1,2.33,1.91v-2.4h3.45v16.8a8.43,8.43,0,0,1-1,4.06,7,7,0,0,1-2.78,2.81,8.69,8.69,0,0,1-4.33,1,9.41,9.41,0,0,1-5.58-1.58,5.78,5.78,0,0,1-2.52-4.27h3.39a3.63,3.63,0,0,0,1.66,2.08,5.66,5.66,0,0,0,3.05.8,4.54,4.54,0,0,0,3.34-1.26,4.92,4.92,0,0,0,1.28-3.66V109.1a6.87,6.87,0,0,1-2.36,2,7,7,0,0,1-3.37.8,7.33,7.33,0,0,1-3.95-1.1,7.7,7.7,0,0,1-2.82-3.05,9.43,9.43,0,0,1-1-4.46,9.15,9.15,0,0,1,1-4.41,7.52,7.52,0,0,1,6.77-4A7.31,7.31,0,0,1,441.09,95.55Zm1.62,4.79a4.94,4.94,0,0,0-1.84-1.92,4.92,4.92,0,0,0-6.77,1.87,6,6,0,0,0-.7,3,6.16,6.16,0,0,0,.7,3,5,5,0,0,0,1.86,2,4.7,4.7,0,0,0,2.45.68,4.81,4.81,0,0,0,4.3-2.6,6.59,6.59,0,0,0,0-6Z"/><path class="cls-2" d="M7.7,147.89c9.73,6.14,34.23,19.76,67.08,18.22,5.93-.28,61.23-3.81,89.29-51.06,17.74-29.87,14.49-60.2,12.86-70.71"/><path class="cls-1" d="M239.08,38.36v6.85h-9.3V73.46h-8.55V45.21h-9.3V38.36Z"/><path class="cls-1" d="M277.53,38.36v35.1H269V59h-13.3V73.46h-8.55V38.36h8.55V52.11H269V38.36Z"/><path class="cls-1" d="M305.33,73.46,298,60.21h-2V73.46h-8.55V38.36h14.35a15.9,15.9,0,0,1,7.08,1.44,10,10,0,0,1,4.37,4,11.06,11.06,0,0,1,1.45,5.63,10.44,10.44,0,0,1-2,6.25,10.61,10.61,0,0,1-5.83,3.89L315,73.46ZM296,54.16h5.3A4.84,4.84,0,0,0,304.81,53,4.33,4.33,0,0,0,306,49.75a4.19,4.19,0,0,0-1.17-3.14,4.84,4.84,0,0,0-3.53-1.15H296Z"/><path class="cls-1" d="M332.33,38.36v35.1h-8.55V38.36Z"/><path class="cls-1" d="M365.13,38.36v6.85h-14.3v7.4h10.7v6.64h-10.7V73.46h-8.55V38.36Z"/><path class="cls-1" d="M398.63,38.36v6.85h-9.3V73.46h-8.55V45.21h-9.3V38.36Z"/><path class="cls-1" d="M414.21,71.5a17.11,17.11,0,0,1-6.55-6.42,18.88,18.88,0,0,1,0-18.53,17.17,17.17,0,0,1,6.55-6.39,19.05,19.05,0,0,1,18.15,0,16.91,16.91,0,0,1,6.5,6.39,19.19,19.19,0,0,1,0,18.53,17,17,0,0,1-6.5,6.42,19,19,0,0,1-18.12,0ZM430,63.21a10.67,10.67,0,0,0,2.52-7.41A10.63,10.63,0,0,0,430,48.38a9.63,9.63,0,0,0-13.5,0A10.54,10.54,0,0,0,414,55.8a10.58,10.58,0,0,0,2.53,7.43,9.58,9.58,0,0,0,13.5,0Z"/><path class="cls-1" d="M467.63,73.46l-7.3-13.25h-2.05V73.46h-8.55V38.36h14.35a15.9,15.9,0,0,1,7.08,1.44,10,10,0,0,1,4.37,4A11.06,11.06,0,0,1,477,49.41a10.21,10.21,0,0,1-7.8,10.14l8.1,13.91Zm-9.35-19.3h5.3A4.86,4.86,0,0,0,467.11,53a4.33,4.33,0,0,0,1.17-3.25,4.19,4.19,0,0,0-1.17-3.14,4.86,4.86,0,0,0-3.53-1.15h-5.3Z"/><path class="cls-1" d="M495.18,66.46h15.1v7h-24.8V67l15-21.6h-15v-7h24.8v6.5Z"/><path class="cls-1" d="M527.16,71.5a17.11,17.11,0,0,1-6.55-6.42,18.88,18.88,0,0,1,0-18.53,17.17,17.17,0,0,1,6.55-6.39,19.05,19.05,0,0,1,18.15,0,16.91,16.91,0,0,1,6.5,6.39,19.19,19.19,0,0,1,0,18.53,17.05,17.05,0,0,1-6.5,6.42,19,19,0,0,1-18.12,0ZM543,63.21a10.67,10.67,0,0,0,2.52-7.41A10.63,10.63,0,0,0,543,48.38a9.63,9.63,0,0,0-13.5,0,10.54,10.54,0,0,0-2.53,7.44,10.58,10.58,0,0,0,2.53,7.43,9.58,9.58,0,0,0,13.5,0Z"/></g></g></svg>