<svg xmlns="http://www.w3.org/2000/svg" viewBox="0 0 559.58 168.59"><defs><style>.cls-1{fill:#4b1979;}.cls-2,.cls-4{fill:none;stroke:#000;stroke-miterlimit:10;}.cls-2{stroke-width:4px;}.cls-3{font-size:30px;font-family:Poppins-Medium, Poppins;font-weight:500;letter-spacing:0.01em;}.cls-5{font-size:50px;fill:#7126b5;font-family:Poppins-Bold, Poppins;font-weight:700;letter-spacing:0.07em;}</style></defs><g id="Layer_2" data-name="Layer 2"><g id="Layer_1-2" data-name="Layer 1"><path class="cls-1" d="M28.71,32.06C26.9,31,19.28,39.3,0,67.2c2.66,2.32,5.69,5,9,8.15,6.31,5.92,8.92,8.84,11.57,8.14,1.74-.46,1.61-2.38,3.43-3.86,3.28-2.65,8.92-1.08,13.16.66a109.68,109.68,0,0,0,29.27,60.2,88.3,88.3,0,0,0,16.71-4.29c28.58-10.4,44.56-33.06,51.43-44.57C122.76,102,112,103.06,108,103.19c-20.89.68-39.37-17.46-46.27-34.27C57.25,58,57.24,46.75,54,46.63c-3.45-.12-3.62,12.67-13.12,17.51-4.65,2.38-11.72,3-15.17-.37C18.15,56.45,31.52,33.68,28.71,32.06Z"/><path class="cls-2" d="M38.57,17.92A223.63,223.63,0,0,0,16.29,70.63,44.59,44.59,0,0,0,24,75.77a46.2,46.2,0,0,0,18,5.15l9.86-24a101.15,101.15,0,0,0,51.43,65.14A107.72,107.72,0,0,0,116,113.15c7.21-5.85,18.14-14.73,25-29.66a67.91,67.91,0,0,0,6-28.29,43.35,43.35,0,0,1-30-3,42.48,42.48,0,0,1-16.75-15.34L120,35.06a45.48,45.48,0,0,0,.43-26.14l-48-6.43c4.95,9.71,1.82,21-5.57,25.71C58.12,33.8,43.88,30,38.57,17.92Z"/><path class="cls-1" d="M97.29,35.44a16.35,16.35,0,0,1,7.9-6.08c3.3-1.09,5.5-.34,9.08-1.92A18.07,18.07,0,0,0,120,23.35a20.3,20.3,0,0,1,.11,4.37,20,20,0,0,1-1.5,6Z"/><text class="cls-3" transform="translate(217.58 113.46)">Online Thrifting</text><path class="cls-4" d="M7.7,149.75c9.73,6.15,34.23,19.76,67.08,18.22,5.93-.27,61.23-3.8,89.29-51,17.74-29.87,14.49-60.21,12.86-70.72"/><text class="cls-5" transform="translate(210.73 75.32)">THRIFTORZO</text></g></g></svg>